# xmcd
#
# Track frame offsets:
#	150
#	4398
#	30008
#	48495
#	68568
#	93896
#	110391
#	125263
#	134705
#	187855
#	188933
#	200120
#	208460
#	217839
#	239289
#	246521
#	248705
#	256544
#	266094
#
# Disc length: 3640 seconds
#
# Revision: 1
# Processed by: cddbd v1.5.1PL0 Copyright (c) Steve Scherf et al.
# Submitted via: audiograbber 1.83.01
#
DISCID=100e3613
DTITLE=Cowboygutten Tommy Tom - Cowboygutten Tommy Tom og Barske Bever
DYEAR=1998
DGENRE=Childrerns music
TTITLE0=Innledning
TTITLE1=Tommy Tom og Sheriff Jones
TTITLE2=Hvor er nøkkelen
TTITLE3=Tommy Tom kler seg ut
TTITLE4=Barske Bever kommer
TTITLE5=Den magiske staven
TTITLE6=Kassen er låst
TTITLE7=Barske Bever finner gullet
TTITLE8=Tommy Tom oppdager Barske Bever
TTITLE9=Avslutning
TTITLE10=Tommy Tom Sangen
TTITLE11=Pynte pynte byen vår
TTITLE12=Sheriffsangen
TTITLE13=Solodansen
TTITLE14=Barske Bever rap
TTITLE15=Den magiske staven
TTITLE16=Vi er rike
TTITLE17=Endelig funnet gull
TTITLE18=Ha det bra
EXTD=
EXTT0=
EXTT1=
EXTT2=
EXTT3=
EXTT4=
EXTT5=
EXTT6=
EXTT7=
EXTT8=
EXTT9=
EXTT10=
EXTT11=
EXTT12=
EXTT13=
EXTT14=
EXTT15=
EXTT16=
EXTT17=
EXTT18=
PLAYORDER=
